<svg width="40" height="40" viewBox="0 0 40 40" fill="none" xmlns="http://www.w3.org/2000/svg">
<g clip-path="url(#clip0_1_797)">
<g clip-path="url(#clip1_1_797)">
<path d="M22.3935 7.75049C25.2321 8.69227 27.4363 10.669 28.7262 13.1224" stroke="#FCFBF7" stroke-width="1.23077" stroke-linecap="round"/>
<path d="M30.1049 2.48657C26.0484 2.48657 22.7594 5.77546 22.7594 9.83195C22.7594 13.8884 26.0484 17.1774 30.1049 17.1774C34.1614 17.1774 37.4502 13.8884 37.4502 9.83195C37.4502 5.77546 34.1624 2.48657 30.1049 2.48657ZM30.1049 4.23087C31.3457 4.23087 32.493 4.63548 33.4218 5.31884L25.5918 13.1489C24.9084 12.2201 24.5038 11.0739 24.5038 9.83195C24.5038 6.7386 27.0115 4.22983 30.1059 4.22983L30.1049 4.23087ZM30.1049 15.4341C28.864 15.4341 27.7167 15.0295 26.7889 14.3461L34.619 6.51601C35.3023 7.44487 35.707 8.59109 35.707 9.83195C35.707 12.9253 33.1992 15.4341 30.1049 15.4341Z" fill="url(#paint0_linear_1_797)"/>
<path d="M18.3625 37.9425C10.253 37.9425 3.6789 31.3684 3.6789 23.2588C3.6789 15.1493 10.253 8.5752 18.3625 8.5752C26.4721 8.5752 33.0462 15.1493 33.0462 23.2588C33.0462 31.3684 26.4721 37.9425 18.3625 37.9425Z" fill="url(#paint1_linear_1_797)"/>
<path d="M15.2679 18.7988C14.4855 19.5196 13.1266 19.7049 11.9529 18.7988" stroke="#2E2A42" stroke-width="1.23077" stroke-linecap="round"/>
<path d="M24.7718 18.7988C23.9895 19.5196 22.6305 19.7049 21.4567 18.7988" stroke="#2E2A42" stroke-width="1.23077" stroke-linecap="round"/>
<path d="M14.779 25.4128C15.6511 24.436 18.4001 22.6289 22.4188 23.215" stroke="#2E2A42" stroke-width="1.23077" stroke-linecap="round" stroke-linejoin="round"/>
<path d="M16.3323 12.3171C13.2586 12.3171 10.5643 13.9414 9.06087 16.3786" stroke="white" stroke-width="1.23077" stroke-linecap="round"/>
</g>
</g>
<defs>
<linearGradient id="paint0_linear_1_797" x1="30.1049" y1="2.48657" x2="30.1049" y2="17.1774" gradientUnits="userSpaceOnUse">
<stop stop-color="#AFDDFF"/>
<stop offset="1" stop-color="#917BFF"/>
</linearGradient>
<linearGradient id="paint1_linear_1_797" x1="23.3409" y1="25.6737" x2="31.0408" y2="41.1424" gradientUnits="userSpaceOnUse">
<stop stop-color="#E2C1FA"/>
<stop offset="1" stop-color="#917BFF"/>
</linearGradient>
<clipPath id="clip0_1_797">
<rect width="40" height="40" fill="white"/>
</clipPath>
<clipPath id="clip1_1_797">
<rect width="40" height="40" fill="white"/>
</clipPath>
</defs>
</svg>
