<svg width="214" height="196" viewBox="0 0 214 196" fill="none" xmlns="http://www.w3.org/2000/svg">
<g clip-path="url(#clip0_1_957)">
<g clip-path="url(#clip1_1_957)">
<g clip-path="url(#clip2_1_957)">
<path fill-rule="evenodd" clip-rule="evenodd" d="M48.4117 192.459C47.3553 192.414 46.535 191.522 46.5797 190.465L48.5963 142.724C48.641 141.668 49.5336 140.847 50.59 140.891C51.6464 140.936 52.4667 141.829 52.422 142.886L50.4054 190.627C50.3607 191.683 49.4681 192.503 48.4117 192.459Z" fill="#2E2A42"/>
<path d="M66.0892 192.337H48.1065C47.5133 192.337 47.0339 191.847 47.0451 191.253C47.1757 184.357 47.7675 183.69 58.792 185.489C62.645 186.117 65.4772 187.789 67.3881 189.399C68.6927 190.499 67.7951 192.337 66.0892 192.337Z" fill="#2E2A42"/>
<path fill-rule="evenodd" clip-rule="evenodd" d="M22.6829 192.405C23.6924 192.72 24.7657 192.156 25.0803 191.147L39.6384 144.441C39.9529 143.431 39.3896 142.358 38.3801 142.043C37.3706 141.729 36.2973 142.292 35.9826 143.301L21.4246 190.007C21.11 191.016 21.6733 192.09 22.6829 192.405Z" fill="#2E2A42"/>
<path d="M5.5834 192.318H23.5661C24.1593 192.318 24.6386 191.828 24.6274 191.234C24.4968 184.338 23.9051 183.671 12.8805 185.469C9.02759 186.099 6.19542 187.771 4.28449 189.381C2.97987 190.479 3.8775 192.318 5.5834 192.318Z" fill="#2E2A42"/>
<path d="M45.5299 80.823C44.7219 80.063 41.8255 77.0229 41.2767 76.7645C40.5755 76.4301 40.1639 76.2172 39.4474 76.7645L8.66922 107.12C-13.6942 133.674 10.651 169.228 42.9688 166.69C75.18 164.167 93.2598 130.026 69.753 104.809C62.3748 96.8897 53.396 88.3319 45.5146 80.823H45.5299Z" fill="#D7BEFC"/>
<path d="M58.4075 123.233C55.7112 123.968 52.707 123.278 50.5893 121.163C48.4715 119.048 47.7804 116.049 48.5158 113.356C47.2096 113.712 45.9757 114.402 44.9496 115.427C41.8059 118.566 41.8059 123.655 44.9496 126.794C48.0933 129.933 53.1903 129.933 56.334 126.794C57.36 125.77 58.0512 124.537 58.4075 123.233Z" fill="white"/>
<path d="M58.4009 123.236C55.7044 123.971 52.7001 123.281 50.5823 121.166C48.4647 119.052 47.7735 116.052 48.5087 113.36C51.2051 112.626 54.2095 113.316 56.3273 115.43C58.4449 117.545 59.136 120.544 58.4009 123.236Z" fill="#2E2A42"/>
<path d="M37.271 126.794C34.1273 129.933 29.0303 129.933 25.8866 126.794C22.7429 123.655 22.7429 118.566 25.8866 115.427C26.9127 114.402 28.1467 113.712 29.4531 113.356C28.7176 116.049 29.4087 119.049 31.5265 121.163C33.6441 123.278 36.6482 123.968 39.3444 123.234C38.9881 124.537 38.2969 125.77 37.271 126.794Z" fill="white"/>
<path d="M39.3388 123.236C36.6424 123.971 33.638 123.281 31.5201 121.166C29.4026 119.052 28.7113 116.052 29.4466 113.36C32.1429 112.626 35.1473 113.316 37.2652 115.43C39.3827 117.545 40.074 120.544 39.3388 123.236Z" fill="#2E2A42"/>
<path fill-rule="evenodd" clip-rule="evenodd" d="M152.641 192.479C150.837 192.411 149.445 191.971 149.512 190.167L152.665 105.46C152.732 103.656 154.249 102.248 156.053 102.315C157.857 102.382 159.265 103.899 159.198 105.703L156.045 190.41C155.978 192.214 154.445 192.545 152.641 192.479Z" fill="#2E2A42"/>
<path d="M179.578 193.283L151.809 192.832C150.606 192.812 149.668 191.778 149.716 190.575C150.246 177.642 147.212 177.74 167.139 180.99C173.726 182.064 178.667 184.818 182.117 187.575C184.774 189.699 182.98 193.339 179.578 193.283Z" fill="#2E2A42"/>
<path fill-rule="evenodd" clip-rule="evenodd" d="M118.57 192.479C120.375 192.411 121.767 191.971 121.7 190.167L118.547 105.46C118.48 103.656 116.963 102.248 115.159 102.315C113.354 102.382 111.946 103.899 112.013 105.703L115.166 190.41C115.233 192.214 116.766 192.545 118.57 192.479Z" fill="#2E2A42"/>
<path d="M91.6495 193.283L119.419 192.832C120.622 192.812 121.561 191.778 121.511 190.575C120.981 177.642 124.016 177.74 104.088 180.99C97.5028 182.064 92.5606 184.818 89.1109 187.575C86.454 189.699 88.2485 193.339 91.6495 193.283Z" fill="#2E2A42"/>
<path d="M90.813 147.218C88.9104 145.054 85.9853 146.2 83.5521 147.985C83.0609 148.346 82.4402 148.418 81.8838 148.275C80.4412 147.904 79.6996 146.046 78.691 144.95C77.4938 143.649 76.2614 142.322 73.9295 142.796L73.6152 147.321C72.8141 157.048 76.6955 164.378 84.647 163.523C94.5866 162.456 94.4441 151.349 90.813 147.218Z" fill="#2E2A42"/>
<path fill-rule="evenodd" clip-rule="evenodd" d="M77.157 69.0874C75.3517 69.0874 73.8882 70.551 73.8882 72.3563L73.8896 150.246C73.8896 152.051 75.353 153.514 77.1584 153.514C78.9637 153.514 80.4271 152.051 80.4271 150.246L80.4259 72.3561C80.4259 70.5509 78.9623 69.0874 77.157 69.0874Z" fill="#2E2A42"/>
<path d="M210.938 147.218C209.034 145.053 206.109 146.2 203.677 147.985C203.186 148.345 202.565 148.418 202.009 148.275C200.566 147.903 199.824 146.046 198.815 144.95C197.618 143.65 196.386 142.321 194.054 142.795L193.74 147.32C192.939 157.047 196.819 164.377 204.772 163.524C214.711 162.455 214.568 151.348 210.938 147.218Z" fill="#2E2A42"/>
<path fill-rule="evenodd" clip-rule="evenodd" d="M197.282 69.0869C195.477 69.0869 194.014 70.5504 194.014 72.3558L194.015 150.245C194.015 152.05 195.478 153.513 197.283 153.513C199.089 153.513 200.552 152.05 200.552 150.245L200.551 72.3556C200.551 70.5504 199.087 69.0869 197.282 69.0869Z" fill="#2E2A42"/>
<path d="M145.749 7.77562C144.403 6.50891 139.574 1.44213 138.66 1.01146C137.491 0.454109 136.806 0.0994343 135.611 1.01146L84.3141 51.6033C47.0419 95.8617 87.617 155.118 141.48 150.887C195.166 146.682 225.298 89.7816 186.121 47.7525C173.824 34.5536 158.858 20.2906 145.723 7.77562H145.749Z" fill="#D7BEFC"/>
<path d="M109.572 71.3773C114.064 70.153 119.07 71.3034 122.598 74.8288C126.126 78.3541 127.278 83.3548 126.053 87.8432C128.23 87.2501 130.285 86.0995 131.995 84.3917C137.233 79.1584 137.233 70.6738 131.995 65.4405C126.757 60.2073 118.264 60.2073 113.026 65.4405C111.317 67.1485 110.165 69.2028 109.572 71.3773Z" fill="white"/>
<path d="M109.569 71.3803C114.061 70.1557 119.067 71.3062 122.596 74.8317C126.124 78.3567 127.276 83.3571 126.05 87.8453C121.558 89.0699 116.552 87.9194 113.023 84.3939C109.495 80.8689 108.343 75.8685 109.569 71.3803Z" fill="#2E2A42"/>
<path d="M144.783 65.4405C150.021 60.2073 158.514 60.2073 163.751 65.4405C168.991 70.6738 168.991 79.1584 163.751 84.3917C162.042 86.0996 159.987 87.2502 157.809 87.8433C159.035 83.3549 157.884 78.354 154.354 74.8287C150.826 71.3034 145.821 70.153 141.328 71.3771C141.922 69.2026 143.074 67.1485 144.783 65.4405Z" fill="white"/>
<path d="M141.325 71.3803C145.817 70.1557 150.824 71.3062 154.352 74.8317C157.88 78.3567 159.032 83.357 157.807 87.8451C153.314 89.0697 148.308 87.9193 144.78 84.3939C141.251 80.8687 140.1 75.8684 141.325 71.3803Z" fill="#2E2A42"/>
</g>
</g>
</g>
<defs>
<clipPath id="clip0_1_957">
<rect width="214" height="195.33" fill="white"/>
</clipPath>
<clipPath id="clip1_1_957">
<rect width="214" height="195.33" fill="white"/>
</clipPath>
<clipPath id="clip2_1_957">
<rect width="213.992" height="195.33" fill="white" transform="translate(0.00393677)"/>
</clipPath>
</defs>
</svg>
