<svg width="13" height="13" viewBox="0 0 13 13" fill="none" xmlns="http://www.w3.org/2000/svg">
<path d="M5.50024 0.959229C5.36444 0.959303 5.23257 1.00307 5.12036 1.08325L5.01489 1.17505L0.514893 5.99634C0.450625 6.06504 0.399486 6.14715 0.364502 6.23755C0.329514 6.32805 0.31166 6.42549 0.311768 6.52368C0.311822 6.57271 0.316498 6.6214 0.325439 6.66919L0.365479 6.80981C0.383032 6.85482 0.404724 6.89758 0.429932 6.93774L0.515869 7.05005L5.01587 11.8713C5.14543 12.0102 5.32096 12.0881 5.5022 12.0881C5.63792 12.0881 5.76992 12.0442 5.88208 11.9641L5.98755 11.8713C6.11707 11.7324 6.19067 11.5431 6.19067 11.345C6.19063 11.1964 6.14886 11.053 6.07349 10.9319L5.98755 10.8186L2.76782 7.37036L2.67017 7.26587H12.0012C12.137 7.26587 12.269 7.22203 12.3811 7.14185L12.4856 7.05005C12.615 6.91139 12.6887 6.72247 12.6887 6.52466C12.6887 6.37627 12.6477 6.2325 12.5725 6.11157L12.4856 5.99927C12.3563 5.86071 12.1821 5.78345 12.0012 5.78345H2.67017L2.76782 5.67798L5.98657 2.22778C6.116 2.08886 6.1897 1.89945 6.1897 1.70142C6.18965 1.55285 6.14784 1.40941 6.07251 1.28833L5.98657 1.17505C5.8895 1.07104 5.76655 1.00212 5.63501 0.973877L5.50024 0.959229Z" fill="#5934C5" stroke="#7A55FD" stroke-width="0.125"/>
</svg>
