<svg width="153" height="52" viewBox="0 0 153 52" fill="none" xmlns="http://www.w3.org/2000/svg">
<mask id="mask0_1_1503" style="mask-type:luminance" maskUnits="userSpaceOnUse" x="0" y="0" width="153" height="52">
<path d="M153 0.293945H0V51.2939H153V0.293945Z" fill="white"/>
</mask>
<g mask="url(#mask0_1_1503)">
<path d="M140.816 0.293948H12.1908C11.722 0.293948 11.2588 0.293947 10.7911 0.296497C10.3997 0.299047 10.0114 0.306455 9.61619 0.31269C8.75765 0.322764 7.90112 0.398085 7.05405 0.537996C6.20817 0.680952 5.38879 0.950465 4.62362 1.33742C3.85939 1.72765 3.16109 2.23471 2.55405 2.84022C1.94383 3.44401 1.43516 4.14192 1.0476 4.9071C0.65898 5.67077 0.389507 6.4891 0.248492 7.33384C0.106136 8.17751 0.0295331 9.03091 0.0193705 9.88639C0.00750526 10.2773 0.00625225 10.6695 0 11.0604V40.5311C0.00625225 40.927 0.00750526 41.3105 0.0193705 41.7065C0.0295362 42.562 0.106139 43.4153 0.248492 44.259C0.389118 45.1042 0.658607 45.923 1.0476 46.687C1.43498 47.4497 1.94372 48.1447 2.55405 48.7452C3.15879 49.3534 3.85754 49.8608 4.62362 50.248C5.38879 50.636 6.20808 50.9071 7.05405 51.0523C7.90126 51.1911 8.7577 51.2664 9.61619 51.2777C10.0114 51.2864 10.3997 51.2914 10.7911 51.2914C11.2587 51.2939 11.722 51.2939 12.1908 51.2939H140.816C141.276 51.2939 141.742 51.2939 142.202 51.2914C142.592 51.2914 142.991 51.2864 143.381 51.2777C144.238 51.267 145.092 51.1917 145.938 51.0523C146.787 50.9061 147.609 50.6351 148.378 50.248C149.143 49.8606 149.841 49.3532 150.445 48.7452C151.054 48.1424 151.564 47.4478 151.956 46.687C152.342 45.9225 152.609 45.1037 152.748 44.259C152.89 43.4152 152.97 42.5621 152.985 41.7065C152.99 41.3105 152.99 40.927 152.99 40.5311C153 40.0679 153 39.6073 153 39.1365V12.4525C153 11.9856 153 11.5224 152.99 11.0604C152.99 10.6695 152.99 10.2773 152.985 9.88634C152.97 9.03079 152.89 8.17758 152.748 7.33379C152.609 6.48954 152.342 5.67127 151.956 4.90705C151.167 3.37333 149.915 2.12488 148.378 1.33731C147.609 0.951295 146.787 0.681854 145.938 0.53788C145.093 0.397353 144.238 0.322008 143.381 0.312512C142.991 0.30629 142.592 0.298818 142.202 0.296331C141.742 0.293781 141.276 0.293948 140.816 0.293948Z" fill="#A6A6A6"/>
<path d="M10.7974 50.1779C10.4078 50.1779 10.0277 50.173 9.64118 50.1643C8.84051 50.1539 8.04171 50.0844 7.25133 49.9563C6.51435 49.8298 5.80041 49.5943 5.13306 49.2578C4.47183 48.924 3.86874 48.4864 3.34688 47.9616C2.81748 47.443 2.37672 46.8416 2.04208 46.1811C1.70376 45.5163 1.46961 44.8037 1.34781 44.0681C1.21628 43.2778 1.14511 42.4786 1.13493 41.6775C1.12682 41.4086 1.11621 40.5133 1.11621 40.5133V11.0601C1.11621 11.0601 1.12751 10.1785 1.13499 9.91955C1.14474 9.11972 1.2155 8.32179 1.34664 7.53266C1.46866 6.7951 1.70299 6.08046 2.04149 5.41348C2.3749 4.75343 2.81321 4.15153 3.33943 3.6311C3.86506 3.10572 4.47008 2.66582 5.13243 2.32745C5.79825 1.99197 6.51084 1.75819 7.24633 1.63392C8.03931 1.5046 8.84088 1.43467 9.64432 1.42475L10.798 1.40918H142.196L143.363 1.42537C144.159 1.43481 144.954 1.5041 145.739 1.63267C146.482 1.7585 147.202 1.99391 147.876 2.33118C149.203 3.01311 150.282 4.09199 150.963 5.41659C151.297 6.07897 151.527 6.78778 151.648 7.51897C151.78 8.31457 151.855 9.11877 151.87 9.92516C151.874 10.2862 151.874 10.6741 151.874 11.0601C151.884 11.5382 151.884 11.9933 151.884 12.4521V39.1362C151.884 39.5994 151.884 40.0514 151.874 40.5071C151.874 40.9217 151.874 41.3015 151.869 41.6924C151.854 42.4844 151.781 43.2743 151.65 44.0556C151.531 44.7965 151.298 45.5146 150.96 46.1849C150.623 46.8382 150.185 47.4345 149.661 47.9516C149.139 48.4792 148.535 48.9194 147.872 49.2553C147.2 49.5945 146.481 49.8308 145.739 49.9563C144.949 50.0851 144.15 50.1546 143.349 50.1643C142.975 50.173 142.583 50.1779 142.202 50.1779L140.816 50.1805L10.7974 50.1779Z" fill="black"/>
<path d="M31.6691 26.1772C31.6828 25.113 31.9663 24.0695 32.4931 23.1439C33.0199 22.2183 33.7729 21.4407 34.6821 20.8833C34.1045 20.0607 33.3426 19.3838 32.4567 18.9062C31.5709 18.4286 30.5856 18.1636 29.5791 18.1322C27.432 17.9075 25.3506 19.4134 24.2565 19.4134C23.1412 19.4134 21.4567 18.1546 19.6427 18.1918C18.4694 18.2296 17.3259 18.5698 16.3237 19.1793C15.3214 19.7889 14.4946 20.6469 13.9237 21.6698C11.451 25.939 13.2954 32.2134 15.6642 35.6643C16.8493 37.3541 18.2343 39.2417 20.0466 39.1748C21.8201 39.1014 22.4825 38.047 24.6232 38.047C26.7441 38.047 27.3655 39.1748 29.2146 39.1322C31.1176 39.1014 32.3166 37.4349 33.4601 35.729C34.3116 34.525 34.9668 33.1942 35.4015 31.7861C34.2959 31.3198 33.3524 30.5393 32.6887 29.5418C32.025 28.5444 31.6703 27.3742 31.6691 26.1772Z" fill="white"/>
<path d="M28.1764 15.8626C29.214 14.6205 29.7252 13.024 29.6014 11.4121C28.0161 11.5781 26.5518 12.3337 25.5002 13.5281C24.9861 14.1116 24.5923 14.7905 24.3413 15.5259C24.0904 16.2613 23.9873 17.0387 24.0379 17.8139C24.8308 17.822 25.6152 17.6506 26.3321 17.3127C27.0489 16.9747 27.6795 16.4789 28.1764 15.8626Z" fill="white"/>
<path d="M54.0869 34.8962H48.0349L46.5815 39.1757H44.0181L49.7505 23.3428H52.4137L58.1461 39.1757H55.539L54.0869 34.8962ZM48.6617 32.9215H53.4589L51.094 25.9762H51.0278L48.6617 32.9215Z" fill="white"/>
<path d="M70.526 33.405C70.526 36.9922 68.6006 39.2969 65.6951 39.2969C64.9591 39.3353 64.2271 39.1663 63.583 38.8091C62.9388 38.4519 62.4086 37.9211 62.0529 37.2773H61.9979V42.9949H59.6218V27.6327H61.9218V29.5526H61.9655C62.3375 28.912 62.8767 28.3839 63.5258 28.0246C64.1748 27.6652 64.9094 27.488 65.6514 27.5119C68.5893 27.5119 70.526 29.8278 70.526 33.405ZM68.0837 33.405C68.0837 31.068 66.8725 29.5315 65.0246 29.5315C63.2091 29.5315 61.988 31.1003 61.988 33.405C61.988 35.7309 63.2091 37.2886 65.0246 37.2886C66.8726 37.2886 68.0837 35.7633 68.0837 33.405Z" fill="white"/>
<path d="M83.267 33.405C83.267 36.9922 81.3416 39.2969 78.4361 39.2969C77.7001 39.3353 76.9681 39.1662 76.3239 38.8091C75.6798 38.4519 75.1495 37.9211 74.7939 37.2773H74.7389V42.9949H72.3628V27.6327H74.6627V29.5526H74.7064C75.0784 28.912 75.6177 28.3839 76.2667 28.0245C76.9158 27.6652 77.6504 27.488 78.3923 27.5119C81.3304 27.5119 83.267 29.8278 83.267 33.405ZM80.8247 33.405C80.8247 31.068 79.6135 29.5315 77.7656 29.5315C75.9501 29.5315 74.7289 31.1003 74.7289 33.405C74.7289 35.7309 75.9501 37.2886 77.7656 37.2886C79.6135 37.2886 80.8247 35.7633 80.8247 33.405Z" fill="white"/>
<path d="M91.6877 34.7646C91.8638 36.3347 93.3933 37.3656 95.4835 37.3656C97.4863 37.3656 98.9272 36.3346 98.9272 34.9189C98.9272 33.69 98.0581 32.9542 96.0004 32.4499L93.9427 31.9555C91.0272 31.2533 89.6737 29.8936 89.6737 27.6873C89.6737 24.9555 92.0611 23.0791 95.451 23.0791C98.806 23.0791 101.106 24.9555 101.183 27.6873H98.7848C98.6412 26.1072 97.3314 25.1535 95.4173 25.1535C93.5032 25.1535 92.1934 26.1184 92.1934 27.5229C92.1934 28.6423 93.0299 29.301 95.0764 29.8052L96.8257 30.2335C100.083 31.0017 101.437 32.3067 101.437 34.6225C101.437 37.5847 99.0707 39.4399 95.3074 39.4399C91.7863 39.4399 89.409 37.6283 89.2554 34.7645L91.6877 34.7646Z" fill="white"/>
<path d="M106.565 24.9004V27.6322H108.766V29.5086H106.565V35.8724C106.565 36.861 107.006 37.3217 107.973 37.3217C108.235 37.3171 108.496 37.2988 108.755 37.2669V39.132C108.32 39.2131 107.878 39.2498 107.435 39.2416C105.091 39.2416 104.178 38.3638 104.178 36.1251V29.5086H102.494V27.6322H104.177V24.9004H106.565Z" fill="white"/>
<path d="M110.041 33.4045C110.041 29.7725 112.186 27.4902 115.531 27.4902C118.887 27.4902 121.023 29.7725 121.023 33.4045C121.023 37.0465 118.899 39.3188 115.531 39.3188C112.165 39.3188 110.041 37.0465 110.041 33.4045ZM118.601 33.4045C118.601 30.9131 117.457 29.4426 115.531 29.4426C113.606 29.4426 112.462 30.9243 112.462 33.4045C112.462 35.906 113.606 37.3653 115.531 37.3653C117.457 37.3653 118.601 35.906 118.601 33.4045Z" fill="white"/>
<path d="M122.981 27.6326H125.248V29.5973H125.303C125.456 28.9837 125.816 28.4414 126.324 28.0616C126.831 27.6818 127.453 27.4876 128.087 27.5118C128.361 27.5108 128.634 27.5405 128.901 27.6002V29.8165C128.555 29.7112 128.195 29.6628 127.834 29.6733C127.488 29.6593 127.144 29.72 126.825 29.8512C126.505 29.9824 126.218 30.181 125.983 30.4333C125.748 30.6856 125.57 30.9857 125.462 31.3129C125.354 31.6402 125.318 31.9868 125.358 32.3291V39.176H122.981V27.6326Z" fill="white"/>
<path d="M139.857 35.7852C139.537 37.8807 137.491 39.3188 134.872 39.3188C131.505 39.3188 129.415 37.0689 129.415 33.4593C129.415 29.8385 131.516 27.4902 134.772 27.4902C137.975 27.4902 139.989 29.6841 139.989 33.1842V33.996H131.813V34.1392C131.775 34.564 131.829 34.992 131.97 35.3947C132.11 35.7974 132.336 36.1656 132.63 36.4748C132.925 36.784 133.282 37.0273 133.678 37.1883C134.074 37.3493 134.5 37.4245 134.927 37.4088C135.489 37.4613 136.052 37.3316 136.534 37.0391C137.015 36.7465 137.39 36.3068 137.6 35.7852H139.857ZM131.824 32.34H137.612C137.633 31.958 137.575 31.5757 137.441 31.2172C137.307 30.8586 137.101 30.5316 136.834 30.2564C136.567 29.9813 136.247 29.7642 135.892 29.6185C135.537 29.4729 135.156 29.402 134.772 29.4102C134.385 29.4079 134.002 29.482 133.644 29.6283C133.286 29.7746 132.96 29.9902 132.686 30.2626C132.412 30.535 132.195 30.8588 132.047 31.2153C131.899 31.5719 131.823 31.9541 131.824 32.34Z" fill="white"/>
<path d="M48.3638 11.4256C48.862 11.39 49.3619 11.465 49.8274 11.6454C50.293 11.8257 50.7126 12.1068 51.056 12.4684C51.3994 12.83 51.658 13.2631 51.8133 13.7365C51.9685 14.2099 52.0164 14.7117 51.9536 15.2058C51.9536 17.6363 50.6363 19.0333 48.3638 19.0333H45.6082V11.4256H48.3638ZM46.7931 17.9574H48.2315C48.5874 17.9787 48.9437 17.9205 49.2742 17.7871C49.6048 17.6537 49.9014 17.4485 50.1424 17.1864C50.3834 16.9243 50.5627 16.6119 50.6674 16.272C50.7721 15.932 50.7994 15.5731 50.7474 15.2213C50.7956 14.8709 50.7655 14.5142 50.6593 14.1767C50.553 13.8393 50.3732 13.5295 50.1327 13.2694C49.8923 13.0094 49.5971 12.8057 49.2684 12.6728C48.9397 12.5399 48.5856 12.4811 48.2315 12.5007H46.7931V17.9574Z" fill="white"/>
<path d="M53.2921 16.1605C53.2559 15.7832 53.2992 15.4026 53.4192 15.0429C53.5392 14.6833 53.7332 14.3526 53.9889 14.0721C54.2445 13.7917 54.5561 13.5676 54.9037 13.4142C55.2513 13.2609 55.6272 13.1816 56.0072 13.1816C56.3873 13.1816 56.7632 13.2609 57.1108 13.4142C57.4584 13.5676 57.77 13.7917 58.0256 14.0721C58.2813 14.3526 58.4753 14.6833 58.5953 15.0429C58.7153 15.4026 58.7586 15.7832 58.7224 16.1605C58.7592 16.5382 58.7165 16.9194 58.5968 17.2796C58.4771 17.6398 58.2832 17.9711 58.0275 18.2521C57.7718 18.5332 57.46 18.7577 57.112 18.9114C56.7641 19.0651 56.3878 19.1445 56.0072 19.1445C55.6267 19.1445 55.2504 19.0651 54.9025 18.9114C54.5545 18.7577 54.2427 18.5332 53.987 18.2521C53.7313 17.9711 53.5374 17.6398 53.4177 17.2796C53.298 16.9194 53.2553 16.5382 53.2921 16.1605ZM57.5536 16.1605C57.5536 14.916 56.993 14.1883 56.0091 14.1883C55.0215 14.1883 54.4659 14.916 54.4659 16.1605C54.4659 17.415 55.0215 18.1372 56.0091 18.1372C56.993 18.1371 57.5536 17.41 57.5536 16.1605Z" fill="white"/>
<path d="M65.9406 19.0332H64.7619L63.572 14.8048H63.4821L62.2972 19.0332H61.1297L59.5427 13.292H60.6952L61.7266 17.6729H61.8115L62.9951 13.292H64.0852L65.2689 17.6729H65.3588L66.3851 13.292H67.5214L65.9406 19.0332Z" fill="white"/>
<path d="M68.856 13.2923H69.9497V14.2043H70.0347C70.1787 13.8767 70.4216 13.6021 70.7296 13.4188C71.0376 13.2354 71.3952 13.1525 71.7527 13.1814C72.0329 13.1604 72.3142 13.2026 72.5758 13.3047C72.8374 13.4068 73.0726 13.5663 73.2639 13.7714C73.4553 13.9765 73.598 14.2218 73.6813 14.4894C73.7647 14.7569 73.7866 15.0397 73.7455 15.3168V19.0334H72.6093V15.6013C72.6093 14.6787 72.2072 14.2199 71.3669 14.2199C71.1767 14.211 70.9869 14.2433 70.8103 14.3145C70.6338 14.3857 70.4748 14.4941 70.3443 14.6323C70.2137 14.7705 70.1146 14.9352 70.0538 15.1151C69.9931 15.2951 69.972 15.486 69.9922 15.6748V19.0335H68.856V13.2923Z" fill="white"/>
<path d="M75.5562 11.0508H76.6924V19.0332H75.5562V11.0508Z" fill="white"/>
<path d="M78.2718 16.1597C78.2357 15.7823 78.279 15.4016 78.399 15.042C78.519 14.6823 78.7131 14.3517 78.9687 14.0712C79.2244 13.7907 79.536 13.5666 79.8836 13.4132C80.2313 13.2599 80.6072 13.1807 80.9873 13.1807C81.3674 13.1807 81.7433 13.2599 82.0909 13.4132C82.4385 13.5666 82.7501 13.7907 83.0058 14.0712C83.2615 14.3517 83.4555 14.6823 83.5755 15.042C83.6955 15.4016 83.7389 15.7823 83.7027 16.1597C83.7395 16.5374 83.6967 16.9186 83.577 17.2788C83.4573 17.639 83.2634 17.9703 83.0076 18.2513C82.7519 18.5323 82.44 18.7569 82.0921 18.9105C81.7441 19.0642 81.3678 19.1436 80.9873 19.1436C80.6067 19.1436 80.2304 19.0642 79.8824 18.9105C79.5345 18.7569 79.2226 18.5323 78.9669 18.2513C78.7112 17.9703 78.5172 17.639 78.3975 17.2788C78.2778 16.9186 78.235 16.5374 78.2718 16.1597ZM82.5333 16.1597C82.5333 14.9152 81.9727 14.1874 80.9888 14.1874C80.0012 14.1874 79.4456 14.9152 79.4456 16.1597C79.4456 17.4141 80.0012 18.1363 80.9888 18.1363C81.9727 18.1363 82.5333 17.4091 82.5333 16.1597Z" fill="white"/>
<path d="M84.8989 17.4101C84.8989 16.3766 85.6706 15.7808 87.0403 15.6961L88.5998 15.6065V15.1109C88.5998 14.5046 88.1978 14.1622 87.4211 14.1622C86.7868 14.1622 86.3473 14.3944 86.2212 14.8003H85.1212C85.2373 13.8142 86.1675 13.1816 87.4736 13.1816C88.917 13.1816 89.7311 13.8982 89.7311 15.1109V19.0337H88.6373V18.2269H88.5474C88.3649 18.5163 88.1087 18.7522 87.8048 18.9106C87.501 19.0689 87.1605 19.1441 86.818 19.1283C86.5763 19.1533 86.3321 19.1276 86.1009 19.0528C85.8698 18.978 85.657 18.8556 85.4762 18.6938C85.2954 18.5319 85.1506 18.334 85.0512 18.1129C84.9517 17.8918 84.8999 17.6524 84.8989 17.4101ZM88.5998 16.9195V16.4395L87.1939 16.5291C86.401 16.582 86.0414 16.851 86.0414 17.3571C86.0414 17.8738 86.4909 18.1745 87.109 18.1745C87.2901 18.1928 87.4731 18.1746 87.6469 18.1209C87.8208 18.0673 87.9821 17.9793 88.1212 17.8622C88.2603 17.7451 88.3744 17.6013 88.4566 17.4393C88.5388 17.2774 88.5875 17.1006 88.5998 16.9195Z" fill="white"/>
<path d="M91.2244 16.1601C91.2244 14.346 92.1596 13.1968 93.6142 13.1968C93.974 13.1802 94.3311 13.2662 94.6438 13.4445C94.9564 13.6229 95.2117 13.8863 95.3797 14.204H95.4647V11.0508H96.6009V19.0332H95.5121V18.1262H95.4222C95.2412 18.4417 94.977 18.7018 94.6583 18.8784C94.3396 19.055 93.9785 19.1412 93.6142 19.1278C92.1496 19.1279 91.2244 17.9786 91.2244 16.1601ZM92.3981 16.1601C92.3981 17.3779 92.9737 18.1106 93.9364 18.1106C94.8941 18.1106 95.4859 17.3673 95.4859 16.1651C95.4859 14.9686 94.8878 14.2146 93.9364 14.2146C92.9799 14.2146 92.3981 14.9524 92.3981 16.1601Z" fill="white"/>
<path d="M101.302 16.1605C101.266 15.7832 101.309 15.4026 101.429 15.0429C101.549 14.6833 101.743 14.3526 101.999 14.0721C102.254 13.7917 102.566 13.5676 102.913 13.4142C103.261 13.2609 103.637 13.1816 104.017 13.1816C104.397 13.1816 104.773 13.2609 105.121 13.4142C105.468 13.5676 105.78 13.7917 106.035 14.0721C106.291 14.3526 106.485 14.6833 106.605 15.0429C106.725 15.4026 106.768 15.7832 106.732 16.1605C106.769 16.5382 106.726 16.9194 106.607 17.2796C106.487 17.6398 106.293 17.9711 106.037 18.2521C105.782 18.5332 105.47 18.7577 105.122 18.9114C104.774 19.0651 104.398 19.1445 104.017 19.1445C103.636 19.1445 103.26 19.0651 102.912 18.9114C102.564 18.7577 102.252 18.5332 101.997 18.2521C101.741 17.9711 101.547 17.6398 101.427 17.2796C101.308 16.9194 101.265 16.5382 101.302 16.1605ZM105.563 16.1605C105.563 14.916 105.003 14.1883 104.019 14.1883C103.031 14.1883 102.476 14.916 102.476 16.1605C102.476 17.415 103.031 18.1372 104.019 18.1372C105.003 18.1371 105.563 17.41 105.563 16.1605Z" fill="white"/>
<path d="M108.257 13.2923H109.35V14.2043H109.435C109.579 13.8767 109.822 13.6021 110.13 13.4188C110.438 13.2354 110.796 13.1525 111.153 13.1814C111.434 13.1604 111.715 13.2026 111.976 13.3047C112.238 13.4068 112.473 13.5663 112.665 13.7714C112.856 13.9765 112.999 14.2218 113.082 14.4894C113.165 14.7569 113.187 15.0397 113.146 15.3168V19.0334H112.01V15.6013C112.01 14.6787 111.608 14.2199 110.768 14.2199C110.577 14.211 110.387 14.2433 110.211 14.3145C110.034 14.3857 109.875 14.4941 109.745 14.6323C109.614 14.7705 109.515 14.9352 109.454 15.1151C109.394 15.2951 109.373 15.486 109.393 15.6748V19.0335H108.257V13.2923Z" fill="white"/>
<path d="M119.567 11.8623V13.3178H120.814V14.2722H119.567V17.2244C119.567 17.8258 119.815 18.0891 120.381 18.0891C120.526 18.0887 120.67 18.0799 120.814 18.063V19.0068C120.61 19.0432 120.403 19.0625 120.196 19.0647C118.932 19.0647 118.429 18.6214 118.429 17.5145V14.2722H117.515V13.3178H118.429V11.8623H119.567Z" fill="white"/>
<path d="M122.366 11.0508H123.492V14.2146H123.582C123.733 13.884 123.983 13.6078 124.297 13.4238C124.611 13.2398 124.975 13.1568 125.338 13.1862C125.617 13.171 125.895 13.2174 126.154 13.322C126.412 13.4266 126.645 13.5869 126.834 13.7913C127.023 13.9957 127.165 14.2393 127.249 14.5047C127.333 14.7701 127.358 15.0507 127.321 15.3265V19.0332H126.183V15.606C126.183 14.689 125.755 14.2246 124.952 14.2246C124.757 14.2086 124.56 14.2354 124.377 14.303C124.193 14.3707 124.026 14.4775 123.888 14.6162C123.75 14.7548 123.644 14.9219 123.577 15.1056C123.511 15.2894 123.485 15.4855 123.502 15.6801V19.0332H122.366V11.0508Z" fill="white"/>
<path d="M133.945 17.4826C133.791 18.0073 133.457 18.4612 133.001 18.7649C132.544 19.0685 131.996 19.2026 131.451 19.1436C131.071 19.1536 130.694 19.0812 130.346 18.9313C129.998 18.7815 129.686 18.5578 129.433 18.2758C129.18 17.9939 128.992 17.6604 128.881 17.2985C128.77 16.9367 128.739 16.5551 128.791 16.1802C128.741 15.8043 128.772 15.4219 128.882 15.0589C128.993 14.6959 129.18 14.3609 129.432 14.0765C129.684 13.7921 129.994 13.5649 130.341 13.4104C130.689 13.2558 131.065 13.1775 131.446 13.1808C133.048 13.1808 134.014 14.2722 134.014 16.075V16.4704H129.949V16.5339C129.931 16.7446 129.957 16.9566 130.027 17.1565C130.096 17.3563 130.206 17.5396 130.35 17.6944C130.495 17.8493 130.67 17.9723 130.865 18.0557C131.06 18.1391 131.27 18.181 131.482 18.1786C131.754 18.2112 132.029 18.1624 132.273 18.0384C132.517 17.9145 132.718 17.721 132.852 17.4826H133.945ZM129.949 15.6324H132.857C132.871 15.4397 132.845 15.2462 132.78 15.0642C132.714 14.8822 132.612 14.7159 132.478 14.5758C132.345 14.4357 132.183 14.3251 132.005 14.2509C131.826 14.1767 131.633 14.1407 131.439 14.1451C131.243 14.1426 131.048 14.1794 130.866 14.2533C130.684 14.3272 130.518 14.4367 130.38 14.5753C130.241 14.7139 130.131 14.8788 130.057 15.0604C129.983 15.2419 129.946 15.4364 129.949 15.6324Z" fill="white"/>
</g>
</svg>
