<svg width="40" height="40" viewBox="0 0 40 40" fill="none" xmlns="http://www.w3.org/2000/svg">
<g clip-path="url(#clip0_1_757)">
<g clip-path="url(#clip1_1_757)">
<path d="M9.30962 29.1622C17.5662 29.1622 24.2597 22.4688 24.2597 14.2121C24.2597 9.53237 22.1096 5.35488 18.7431 2.61357C18.2902 2.24482 18.4803 1.48578 19.0639 1.46492C19.2877 1.45692 19.5126 1.45288 19.7385 1.45288C29.9815 1.45288 38.2853 9.75662 38.2853 19.9999C38.2853 30.243 29.9815 38.5471 19.7385 38.5471C12.8584 38.5471 6.85322 34.8008 3.65169 29.2371C3.36025 28.7306 3.90458 28.1675 4.45731 28.3571C5.97885 28.8791 7.61099 29.1622 9.30962 29.1622Z" fill="url(#paint0_linear_1_757)"/>
<path d="M7.76124 4.88381C7.85273 3.97818 9.17234 3.97818 9.26378 4.88381L9.34222 5.66023C9.53391 7.55846 10.9653 9.09715 12.8448 9.42532C13.516 9.54252 13.516 10.506 12.8448 10.6232C10.9653 10.9514 9.53391 12.4901 9.34222 14.3883L9.26378 15.1647C9.17234 16.0703 7.85273 16.0703 7.76124 15.1647L7.68286 14.3883C7.49111 12.4901 6.05967 10.9514 4.18026 10.6232C3.50899 10.506 3.50899 9.54252 4.18026 9.42532C6.05967 9.09715 7.49111 7.55846 7.68286 5.66023L7.76124 4.88381Z" fill="url(#paint1_linear_1_757)"/>
<path d="M14.6862 14.511C14.7421 13.9569 15.5495 13.9569 15.6054 14.511L15.6534 14.986C15.7707 16.1473 16.6465 17.0888 17.7963 17.2895C18.207 17.3612 18.207 17.9507 17.7963 18.0224C16.6465 18.2232 15.7707 19.1646 15.6534 20.3259L15.6054 20.8009C15.5495 21.355 14.7421 21.355 14.6862 20.8009L14.6382 20.3259C14.5209 19.1646 13.6451 18.2232 12.4952 18.0224C12.0846 17.9507 12.0846 17.3612 12.4952 17.2895C13.6451 17.0888 14.5209 16.1473 14.6382 14.986L14.6862 14.511Z" fill="url(#paint2_linear_1_757)"/>
<mask id="mask0_1_757" style="mask-type:alpha" maskUnits="userSpaceOnUse" x="3" y="1" width="36" height="38">
<path d="M9.30974 29.1622C17.5663 29.1622 24.2599 22.4688 24.2599 14.2121C24.2599 9.53237 22.1097 5.35488 18.7432 2.61357C18.2904 2.24482 18.4804 1.48578 19.064 1.46492C19.2879 1.45692 19.5128 1.45288 19.7386 1.45288C29.9818 1.45288 38.2856 9.75662 38.2856 19.9999C38.2856 30.243 29.9818 38.5471 19.7386 38.5471C12.8585 38.5471 6.8534 34.8008 3.65184 29.2371C3.3604 28.7306 3.90473 28.1675 4.45746 28.3571C5.979 28.8791 7.61111 29.1622 9.30974 29.1622Z" fill="url(#paint3_linear_1_757)"/>
</mask>
<g mask="url(#mask0_1_757)">
<path fill-rule="evenodd" clip-rule="evenodd" d="M25.804 18.1805C25.1234 17.9402 24.4262 17.9834 23.9974 18.2619C23.7079 18.4499 23.3208 18.3676 23.1328 18.0782C22.9448 17.7887 23.027 17.4016 23.3164 17.2136C24.1723 16.6577 25.3051 16.6788 26.2201 17.0018C27.1331 17.3241 28.0341 18.0225 28.273 19.0606C28.3505 19.3971 28.1404 19.7325 27.8041 19.8099C27.4678 19.8873 27.1323 19.6774 27.0549 19.341C26.947 18.8719 26.4868 18.4215 25.804 18.1805Z" fill="#2E2A42"/>
<path fill-rule="evenodd" clip-rule="evenodd" d="M32.4378 20.5526C31.7572 20.3123 31.0599 20.3555 30.631 20.634C30.3415 20.822 29.9547 20.7397 29.7667 20.4503C29.5785 20.1608 29.6607 19.7737 29.9502 19.5856C30.8061 19.0298 31.9387 19.0508 32.854 19.3739C33.767 19.6962 34.668 20.3945 34.9068 21.4328C34.9843 21.7691 34.7743 22.1046 34.438 22.182C34.1015 22.2594 33.7661 22.0495 33.6887 21.7131C33.5807 21.244 33.1206 20.7936 32.4378 20.5526Z" fill="#2E2A42"/>
<path fill-rule="evenodd" clip-rule="evenodd" d="M21.5002 21.4853C21.7874 21.2939 22.1755 21.3716 22.3669 21.6588C23.1191 22.7876 24.4835 23.8346 26.1036 24.4886C27.5441 25.0702 29.1309 25.3183 30.5927 25.074C30.5415 24.3816 30.7111 23.6737 31.0573 23.0511C31.2249 22.7494 31.6056 22.6409 31.9074 22.8086C32.209 22.9764 32.3175 23.3569 32.1497 23.6586C31.8327 24.2287 31.7555 24.8584 31.913 25.3869C32.0649 25.8973 32.4501 26.3672 33.179 26.6289C33.5038 26.7455 33.6727 27.1034 33.5561 27.4284C33.4394 27.7532 33.0814 27.922 32.7566 27.8054C31.8937 27.4957 31.2839 26.9502 30.934 26.2832C29.1575 26.6128 27.2806 26.3118 25.6357 25.6477C23.8394 24.9226 22.2491 23.7361 21.3267 22.352C21.1353 22.0648 21.213 21.6767 21.5002 21.4853Z" fill="#2E2A42"/>
</g>
<g style="mix-blend-mode:multiply" opacity="0.27">
<path d="M20.6866 35.0034C20.5533 36.0476 18.6495 36.6647 16.4343 36.3816C14.2192 36.0988 12.5316 35.023 12.665 33.9788C12.7984 32.9346 14.7022 32.3178 16.9173 32.6006C19.1325 32.8837 20.82 33.9595 20.6866 35.0034Z" fill="#FEB255"/>
</g>
<path d="M33.798 11.3931C33.2266 11.8022 32.1015 11.2096 31.2856 10.0696C30.4697 8.92964 30.2713 7.67384 30.8428 7.26472C31.4143 6.85566 32.539 7.44816 33.3552 8.58822C34.1712 9.72822 34.3695 10.984 33.798 11.3931Z" fill="#FEB255"/>
<path d="M25.7629 34.4529C25.3919 33.856 26.0566 32.7721 27.2474 32.0322C28.4383 31.2924 29.7043 31.1763 30.0752 31.7732C30.4462 32.3701 29.7815 33.4541 28.5908 34.1939C27.3999 34.9338 26.1338 35.0499 25.7629 34.4529Z" fill="#FEB255"/>
</g>
</g>
<defs>
<linearGradient id="paint0_linear_1_757" x1="28.5552" y1="16.7658" x2="13.6117" y2="32.2956" gradientUnits="userSpaceOnUse">
<stop stop-color="#FFDF78"/>
<stop offset="0.945335" stop-color="#FDB154"/>
</linearGradient>
<linearGradient id="paint1_linear_1_757" x1="13.5034" y1="16.6232" x2="1.85037" y2="7.62065" gradientUnits="userSpaceOnUse">
<stop offset="0.400572" stop-color="#FF93AB"/>
<stop offset="1" stop-color="#FDB154"/>
</linearGradient>
<linearGradient id="paint2_linear_1_757" x1="13.5034" y1="16.6233" x2="1.85032" y2="7.62075" gradientUnits="userSpaceOnUse">
<stop offset="0.400572" stop-color="#FF93AB"/>
<stop offset="1" stop-color="#FDB154"/>
</linearGradient>
<linearGradient id="paint3_linear_1_757" x1="28.5555" y1="16.7658" x2="13.6118" y2="32.2956" gradientUnits="userSpaceOnUse">
<stop stop-color="#FFDF78"/>
<stop offset="0.945335" stop-color="#FDB154"/>
</linearGradient>
<clipPath id="clip0_1_757">
<rect width="40" height="40" fill="white"/>
</clipPath>
<clipPath id="clip1_1_757">
<rect width="40" height="40" fill="white"/>
</clipPath>
</defs>
</svg>
