<svg width="390" height="184" viewBox="0 0 390 184" fill="none" xmlns="http://www.w3.org/2000/svg">
<g clip-path="url(#clip0_168_77)">
<g clip-path="url(#clip1_168_77)">
<g clip-path="url(#clip2_168_77)">
<g clip-path="url(#clip3_168_77)">
<path fill-rule="evenodd" clip-rule="evenodd" d="M110.569 173.04C111.472 173.006 112.169 172.785 112.136 171.882L110.558 129.485C110.524 128.582 109.765 127.877 108.862 127.91C107.959 127.944 107.254 128.703 107.287 129.606L108.865 172.004C108.899 172.907 109.666 173.073 110.569 173.04Z" fill="#2E2A42"/>
<path d="M97.0932 173.448L110.993 173.222C111.595 173.212 112.064 172.695 112.04 172.093C111.775 165.619 113.293 165.668 103.319 167.294C100.023 167.832 97.5492 169.211 95.8225 170.592C94.4927 171.655 95.3909 173.476 97.0932 173.448Z" fill="#2E2A42"/>
<path fill-rule="evenodd" clip-rule="evenodd" d="M127.637 173.04C126.734 173.006 126.036 172.785 126.071 171.882L127.648 129.485C127.682 128.582 128.441 127.877 129.344 127.91C130.247 127.944 130.952 128.703 130.918 129.606L129.341 172.004C129.307 172.907 128.54 173.073 127.637 173.04Z" fill="#2E2A42"/>
<path d="M141.098 173.448L127.199 173.222C126.597 173.212 126.128 172.695 126.152 172.093C126.417 165.619 124.898 165.668 134.873 167.294C138.169 167.832 140.643 169.211 142.37 170.592C143.699 171.655 142.801 173.476 141.098 173.448Z" fill="#2E2A42"/>
<path d="M113.682 76.3134C104.538 75.0884 94.9543 77.5898 91.3668 86.7961C85.9401 100.747 101.858 107.31 103.917 119.005C105.704 129.217 95.6408 143.451 107.53 149.485C121.661 156.642 138.238 142.69 141.787 129.294C146.579 111.127 134.288 79.0984 113.682 76.3262V76.3134Z" fill="#62D09E"/>
<path d="M105.418 102.757C107.187 103.236 109.157 102.786 110.547 101.408C111.935 100.03 112.389 98.0756 111.906 96.3213C112.764 96.5532 113.573 97.0028 114.246 97.6703C116.308 99.7158 116.308 103.032 114.246 105.078C112.184 107.123 108.84 107.123 106.778 105.078C106.105 104.41 105.652 103.607 105.418 102.757Z" fill="white"/>
<path d="M105.389 102.765C107.158 103.244 109.129 102.794 110.518 101.416C111.907 100.038 112.36 98.0838 111.878 96.3296C110.109 95.851 108.139 96.3006 106.749 97.6785C105.36 99.0564 104.907 101.011 105.389 102.765Z" fill="#2E2A42"/>
<path d="M119.261 105.077C121.323 107.122 124.667 107.122 126.73 105.077C128.792 103.031 128.792 99.7151 126.73 97.6697C126.056 97.0019 125.246 96.5521 124.389 96.3203C124.872 98.0748 124.418 100.029 123.03 101.407C121.64 102.785 119.67 103.235 117.901 102.757C118.135 103.606 118.588 104.409 119.261 105.077Z" fill="white"/>
<path d="M117.905 102.765C119.674 103.244 121.645 102.794 123.034 101.416C124.423 100.038 124.877 98.0838 124.394 96.3296C122.626 95.851 120.655 96.3006 119.265 97.6785C117.876 99.0564 117.423 101.011 117.905 102.765Z" fill="#2E2A42"/>
<path fill-rule="evenodd" clip-rule="evenodd" d="M90.1946 63.9352C91.4803 63.4502 92.9156 64.0994 93.4006 65.385C93.9958 66.9633 94.6762 68.7151 95.4007 70.5804C98.5224 78.6178 102.463 88.7625 103.941 96.2111C104.208 97.5589 103.332 98.8684 101.984 99.1358C100.637 99.4033 99.3273 98.5275 99.0598 97.1797C97.6769 90.2105 93.9684 80.6521 90.8501 72.6148C90.1007 70.6834 89.3855 68.8398 88.7447 67.1411C88.2598 65.8555 88.9089 64.4201 90.1946 63.9352Z" fill="#2E2A42"/>
<path fill-rule="evenodd" clip-rule="evenodd" d="M29.18 58.2795C28.0086 57.5611 26.4768 57.9286 25.7584 59.0999C24.8767 60.5379 23.8787 62.1303 22.8161 63.8259C18.2373 71.1322 12.4582 80.3538 9.60441 87.391C9.08803 88.6644 9.70169 90.1153 10.9751 90.6316C12.2484 91.1481 13.6993 90.5344 14.2157 89.261C16.8858 82.6767 22.3271 73.9872 26.9025 66.6806C28.0019 64.9247 29.0514 63.2487 30.0005 61.7009C30.7188 60.5296 30.3514 58.9977 29.18 58.2795Z" fill="#2E2A42"/>
<path fill-rule="evenodd" clip-rule="evenodd" d="M75.316 172.291C73.8109 172.235 72.6495 171.867 72.7056 170.362L75.3356 99.6987C75.3916 98.1938 76.6571 97.0192 78.1622 97.0752C79.6673 97.131 80.842 98.3963 80.786 99.9012L78.156 170.565C78.1 172.07 76.8211 172.347 75.316 172.291Z" fill="#2E2A42"/>
<path d="M97.7882 172.96L74.6224 172.583C73.6185 172.566 72.8359 171.703 72.877 170.7C73.3192 159.91 70.7877 159.992 87.4114 162.703C92.9053 163.6 97.0281 165.898 99.9059 168.198C102.122 169.97 100.625 173.005 97.7882 172.96Z" fill="#2E2A42"/>
<path fill-rule="evenodd" clip-rule="evenodd" d="M46.9266 172.291C48.4317 172.235 49.593 171.867 49.5369 170.362L46.907 99.6987C46.851 98.1938 45.5854 97.0192 44.0804 97.0752C42.5752 97.131 41.4006 98.3963 41.4565 99.9012L44.0865 170.565C44.1426 172.07 45.4214 172.347 46.9266 172.291Z" fill="#2E2A42"/>
<path d="M24.4685 172.96L47.6341 172.583C48.6382 172.566 49.4207 171.703 49.3796 170.7C48.9375 159.91 51.469 159.992 34.8452 162.703C29.3514 163.6 25.2285 165.898 22.3507 168.198C20.1343 169.97 21.6313 173.005 24.4685 172.96Z" fill="#2E2A42"/>
<path d="M70.1907 11.0955C85.4302 9.05398 101.404 13.223 107.383 28.5667C116.428 51.8185 89.8984 62.7568 86.4662 82.248C83.4874 99.2678 100.26 122.993 80.4439 133.05C56.8938 144.976 29.264 121.725 23.3494 99.3968C15.3627 69.1177 35.8476 15.7373 70.1907 11.117V11.0955Z" fill="#62D09E"/>
<path d="M83.8585 50.5182C80.9193 49.7183 77.6445 50.4699 75.3359 52.7732C73.0275 55.0765 72.2741 58.3436 73.0757 61.2761C71.6518 60.8885 70.3066 60.1369 69.1883 59.0211C65.7614 55.6021 65.7614 50.0586 69.1883 46.6395C72.6152 43.2204 78.1713 43.2204 81.5983 46.6395C82.7167 47.7553 83.4701 49.0975 83.8585 50.5182Z" fill="white"/>
<path d="M83.8492 50.5153C80.9099 49.7154 77.6351 50.4671 75.3265 52.7704C73.0181 55.0735 72.2647 58.3406 73.0662 61.273C76.0055 62.073 79.2804 61.3213 81.5889 59.018C83.8973 56.7148 84.6508 53.4478 83.8492 50.5153Z" fill="#2E2A42"/>
<path d="M60.8248 46.6394C57.398 43.2204 51.8418 43.2204 48.415 46.6394C44.988 50.0585 44.988 55.602 48.415 59.0211C49.5337 60.1373 50.8793 60.8891 52.3038 61.2765C51.5019 58.344 52.2553 55.0765 54.5639 52.7732C56.8721 50.4703 60.1462 49.7185 63.085 50.5178C62.6966 49.0973 61.9432 47.7553 60.8248 46.6394Z" fill="white"/>
<path d="M63.0767 50.5153C60.1375 49.7154 56.8626 50.4671 54.5541 52.7704C52.2457 55.0735 51.4922 58.3406 52.2938 61.273C55.233 62.073 58.5079 61.3213 60.8164 59.018C63.1249 56.7148 63.8783 53.4478 63.0767 50.5153Z" fill="#2E2A42"/>
<path fill-rule="evenodd" clip-rule="evenodd" d="M94.5008 74.3001C95.8239 73.929 97.1972 74.7008 97.5682 76.0239C97.7597 76.7067 102.465 90.5337 102.635 91.1355C103.058 92.632 103.411 93.8783 103.669 94.8762C103.998 96.1525 104.302 97.4599 104.229 98.4871C104.189 99.0491 104.008 100.022 103.158 100.761C102.303 101.505 101.314 101.54 100.774 101.499C100.221 101.458 99.682 101.305 99.262 101.169C98.816 101.026 98.3169 100.838 97.8125 100.647C97.7176 100.611 97.62 100.573 97.52 100.535C93.506 99.0047 70.0021 94.927 55.7946 96.9561C54.4344 97.1504 53.1741 96.2052 52.9799 94.845C52.7856 93.4847 53.7308 92.2244 55.0911 92.0302C69.8696 89.9195 94.1689 93.951 98.7333 95.6735C98.5055 94.8184 98.2162 93.7954 97.8657 92.5554C97.6923 91.9425 92.9802 78.0921 92.777 77.3674C92.4061 76.0444 93.1778 74.671 94.5008 74.3001Z" fill="#2E2A42"/>
<path d="M71.3333 83.5682C71.092 85.8065 71.1505 87.6549 71.6088 89.372C72.1232 91.2999 74.2022 92.1899 76.1702 91.8607L73.285 96.8352C68.401 98.2284 47.2266 102.973 49.4132 95.4243C50.7467 90.8213 59.7951 90.1422 64.7383 89.8984C65.3695 89.8674 65.8737 89.3773 65.9828 88.7548C66.5334 85.6126 68.1627 82.5819 70.2142 82.1788C70.9557 82.033 71.4143 82.8169 71.3333 83.5682Z" fill="#2E2A42"/>
<path fill-rule="evenodd" clip-rule="evenodd" d="M16.0793 79.7573C14.8498 79.1439 13.3558 79.6435 12.7424 80.873C12.4258 81.5076 12.1266 82.1042 11.8461 82.6632C11.1489 84.0533 10.5682 85.2111 10.1273 86.1425C9.56321 87.334 9.01879 88.5608 8.89711 89.5835C8.83055 90.1429 8.82557 91.1325 9.52065 92.018C10.2208 92.9102 11.1857 93.1301 11.7237 93.192C12.2744 93.2554 12.8326 93.2065 13.2705 93.1527C13.7355 93.0956 14.261 93.0055 14.7925 92.9121C14.8926 92.8945 14.9953 92.8764 15.1007 92.8577C19.331 92.1101 43.1824 92.5294 56.7539 97.1965C58.0534 97.6434 59.4689 96.9522 59.9158 95.6529C60.3626 94.3535 59.6715 92.9379 58.3721 92.491C44.255 87.6363 19.6312 87.022 14.8242 87.8546C15.2089 87.0577 15.6856 86.1073 16.2633 84.9556C16.5488 84.3863 16.859 83.7678 17.195 83.0943C17.8084 81.8647 17.3089 80.3707 16.0793 79.7573Z" fill="#2E2A42"/>
<path d="M51.4519 82.3627C51.2676 84.6065 50.8623 86.4108 50.0889 88.0109C49.2208 89.8074 47.0114 90.2902 45.1406 89.5965L47.0379 95.0251C51.5724 97.3127 71.4753 105.958 70.7485 98.1329C70.3054 93.3611 61.5463 90.991 56.7375 89.8212C56.1234 89.6717 55.7205 89.0956 55.7305 88.4637C55.7812 85.274 54.7515 81.9909 52.8126 81.2087C52.1118 80.926 51.5137 81.6095 51.4519 82.3627Z" fill="#2E2A42"/>
</g>
</g>
</g>
<g clip-path="url(#clip4_168_77)">
<g clip-path="url(#clip5_168_77)">
<g clip-path="url(#clip6_168_77)">
<path fill-rule="evenodd" clip-rule="evenodd" d="M266.781 77.8857C266.644 76.4761 265.388 75.4456 263.979 75.584C261.763 75.8015 258.744 74.9246 255.191 72.8758C251.706 70.8658 248.012 67.9039 244.559 64.4474C241.11 60.9966 237.965 57.1164 235.551 53.3218C233.116 49.4923 231.527 45.909 231.017 43.0362C230.769 41.6417 229.438 40.7121 228.043 40.9599C226.649 41.2078 225.719 42.5392 225.967 43.9338C226.643 47.7371 228.613 51.9708 231.223 56.0745C233.855 60.2131 237.243 64.3824 240.93 68.0729C244.612 71.7576 248.657 75.0287 252.629 77.3191C256.532 79.5704 260.687 81.061 264.48 80.6887C265.889 80.5503 266.92 79.2953 266.781 77.8857Z" fill="#2E2A42"/>
<path d="M229.121 21.2344C230.456 21.2346 231.539 22.3168 231.539 23.6518V32.0661C232.693 31.4114 234.16 31.8093 234.825 32.9602C235.492 34.1165 235.096 35.5948 233.94 36.2623L232.131 37.3061L232.137 37.3271C230.744 38.1219 230.07 39.7637 230.503 41.3088L231.016 43.1399L227.57 49.0472L225.413 43.0008C225.182 42.3519 224.564 41.9384 223.883 41.8293C221.497 41.4463 219.684 39.8465 218.876 37.3299C218.836 37.2555 218.798 37.1783 218.765 37.0983L217.634 34.3501C217.125 33.1155 217.715 31.7022 218.949 31.1939C219.182 31.0979 219.422 31.0402 219.66 31.0194C219.687 30.0334 220.319 29.1374 221.283 28.8031L220.345 25.3C219.999 24.0104 220.764 22.6838 222.054 22.3383C223.344 21.9927 224.669 22.7587 225.015 24.0483L226.304 28.8565C226.365 29.0866 226.704 29.0422 226.704 28.8041V23.6518C226.704 22.3167 227.786 21.2344 229.121 21.2344Z" fill="#2E2A42"/>
<path fill-rule="evenodd" clip-rule="evenodd" d="M340.612 78.7976C341.033 77.4449 342.469 76.689 343.822 77.1094C361.764 82.6836 369.104 97.2941 366.716 108.095C365.508 113.563 361.73 118.022 355.707 119.194C349.849 120.334 342.471 118.246 334.05 112.207C332.9 111.382 332.636 109.779 333.461 108.628C334.287 107.477 335.888 107.214 337.04 108.039C344.896 113.674 350.83 114.918 354.727 114.159C358.455 113.434 360.873 110.765 361.708 106.988C363.407 99.3012 358.228 86.956 342.301 82.0076C340.948 81.5874 340.192 80.1502 340.612 78.7976Z" fill="#2E2A42"/>
<path d="M321.559 159.913L321.802 139.997C321.827 137.923 320.012 136.315 317.942 136.438C310.168 136.897 309.904 135.275 310.332 141.21C311.049 151.186 314.111 157.733 316.93 161.734C318.537 164.015 321.525 162.702 321.559 159.913Z" fill="#2E2A42"/>
<path fill-rule="evenodd" clip-rule="evenodd" d="M283.503 127.555C281.769 131.875 284.951 136.58 289.607 136.58H316.377C317.793 136.58 318.942 137.728 318.942 139.145C318.942 140.561 317.793 141.709 316.377 141.709H289.607C281.319 141.709 275.657 133.335 278.743 125.645L291.101 94.8465C291.629 93.5321 293.122 92.894 294.437 93.4215C295.751 93.949 296.389 95.4423 295.862 96.7567L283.503 127.555Z" fill="#2E2A42"/>
<path d="M269.227 162.427L289.142 162.67C291.216 162.695 292.824 160.881 292.702 158.809C292.243 151.036 293.865 150.773 287.93 151.199C277.954 151.918 271.406 154.979 267.405 157.798C265.125 159.405 266.438 162.393 269.227 162.427Z" fill="#2E2A42"/>
<path fill-rule="evenodd" clip-rule="evenodd" d="M289.466 162.123C290.823 162.528 292.252 161.757 292.657 160.4L311.294 98.0201C311.7 96.663 310.928 95.2342 309.572 94.8287C308.214 94.4232 306.786 95.1948 306.38 96.5519L287.743 158.932C287.338 160.289 288.109 161.718 289.466 162.123Z" fill="#2E2A42"/>
<path d="M274.84 13.8653L294.293 44.0607L305.98 10.6494C307.756 14.9284 316.048 40.6805 316.048 40.6805L353.803 24.0139L334.896 54.0841C346.057 56.1356 360.671 59.9261 371.597 62.9938C360.632 64.7718 346.876 67.8784 336.009 70.223L374.933 92.5168C361.237 91.0123 345.335 88.9607 331.56 88.6089L337.101 124.248L317.628 99.7461L305.395 130.911L291.99 99.7461L261.474 122.001L272.596 85.2679L239.231 86.362C244.753 81.575 259.467 72.5068 265.809 67.8565L234.783 44.0607L274.82 48.6272C274.82 38.9751 274.938 28.0108 274.84 18.3587V13.8653Z" fill="#FF93AB"/>
<path d="M282.212 63.197C285.125 62.4041 288.369 63.1492 290.657 65.4322C292.944 67.7152 293.691 70.9537 292.897 73.8604C294.308 73.4763 295.64 72.7312 296.749 71.6251C300.145 68.2361 300.145 62.7414 296.749 59.3524C293.353 55.9633 287.847 55.9633 284.451 59.3524C283.343 60.4584 282.597 61.7888 282.212 63.197Z" fill="white"/>
<path d="M282.207 63.1934C285.118 62.4004 288.364 63.1454 290.652 65.4285C292.939 67.7114 293.686 70.9496 292.892 73.8562C289.979 74.6492 286.734 73.9043 284.446 71.6211C282.159 69.3383 281.412 66.1 282.207 63.1934Z" fill="#2E2A42"/>
<path d="M305.032 59.3524C308.428 55.9633 313.934 55.9633 317.33 59.3524C320.726 62.7414 320.726 68.2361 317.33 71.6251C316.221 72.7313 314.889 73.4764 313.477 73.8605C314.272 70.9538 313.525 67.7152 311.237 65.4321C308.95 63.1492 305.705 62.4041 302.792 63.1968C303.177 61.7887 303.924 60.4584 305.032 59.3524Z" fill="white"/>
<path d="M302.788 63.1934C305.7 62.4004 308.946 63.1454 311.234 65.4285C313.521 67.7114 314.267 70.9495 313.474 73.8561C310.561 74.6492 307.315 73.9042 305.027 71.621C302.74 69.3382 301.994 66.1 302.788 63.1934Z" fill="#2E2A42"/>
<path d="M338.026 114.789L341.489 111.039C333.621 104.948 325.815 103.563 322.935 108.972C319.337 115.734 326.441 120.423 330.622 119.898C333.147 119.582 333.355 116.689 333.013 114.183C332.897 113.333 333.804 112.636 334.557 113.045L338.026 114.789Z" fill="#2E2A42"/>
<path fill-rule="evenodd" clip-rule="evenodd" d="M202.456 162.813C203.285 162.778 203.929 162.078 203.894 161.249L202.312 123.793C202.276 122.964 201.576 122.32 200.747 122.355C199.918 122.39 199.275 123.091 199.31 123.92L200.892 161.376C200.927 162.205 201.628 162.848 202.456 162.813Z" fill="#2E2A42"/>
<path d="M188.557 162.706H202.666C203.131 162.706 203.507 162.322 203.499 161.856C203.396 156.445 202.932 155.922 194.282 157.333C191.259 157.827 189.037 159.139 187.538 160.402C186.514 161.264 187.219 162.706 188.557 162.706Z" fill="#2E2A42"/>
<path fill-rule="evenodd" clip-rule="evenodd" d="M224.239 149.04C227.248 148.684 230.601 146.898 234.164 143.688C234.78 143.132 234.83 142.183 234.274 141.567C233.719 140.95 232.769 140.901 232.153 141.456C228.818 144.462 226.026 145.804 223.887 146.056C221.855 146.296 220.3 145.573 219.159 144.056C217.96 142.459 217.165 139.893 217.077 136.457C216.989 133.047 217.602 128.909 219.074 124.315C219.327 123.524 218.891 122.679 218.101 122.426C217.311 122.172 216.466 122.607 216.213 123.398C214.66 128.245 213.975 132.722 214.073 136.535C214.171 140.321 215.046 143.584 216.757 145.861C218.527 148.215 221.123 149.407 224.239 149.04Z" fill="#2E2A42"/>
<path d="M240.849 151.445L234.441 141.822C234.124 141.346 233.47 141.235 233.001 141.562C228.49 144.712 227.857 143.635 233.664 150.087C235.477 152.101 237.492 153.242 239.229 153.878C240.749 154.434 241.746 152.792 240.849 151.445Z" fill="#2E2A42"/>
<path d="M190.22 76.2967L201.892 94.414L208.904 74.3672C209.969 76.9346 214.945 92.3858 214.945 92.3858L237.598 82.3859L226.254 100.428C232.95 101.659 241.719 103.933 248.274 105.774C241.695 106.841 233.442 108.705 226.921 110.111L250.276 123.487C242.058 122.585 232.517 121.353 224.252 121.143L227.577 142.527L215.893 127.825L208.553 146.524L200.51 127.825L182.201 141.178L188.873 119.139L168.855 119.795C172.168 116.923 180.996 111.482 184.801 108.691L166.186 94.414L190.208 97.1539C190.208 91.3626 190.278 84.7841 190.22 78.9927V76.2967Z" fill="#FF93AB"/>
<path d="M216.442 111.151C214.412 113.192 211.12 113.192 209.09 111.151C207.059 109.112 207.059 105.805 209.09 103.765C209.752 103.1 210.55 102.651 211.393 102.42C210.918 104.169 211.365 106.118 212.733 107.492C214.1 108.866 216.04 109.314 217.782 108.838C217.552 109.685 217.105 110.486 216.442 111.151Z" fill="white"/>
<path d="M217.781 108.835C216.04 109.312 214.1 108.863 212.732 107.489C211.364 106.115 210.918 104.166 211.393 102.417C213.134 101.94 215.074 102.388 216.442 103.762C217.81 105.136 218.256 107.085 217.781 108.835Z" fill="#2E2A42"/>
<path d="M204.118 111.151C202.087 113.192 198.795 113.192 196.765 111.151C194.735 109.112 194.735 105.805 196.765 103.765C197.428 103.1 198.225 102.651 199.069 102.42C198.594 104.169 199.04 106.118 200.408 107.492C201.776 108.866 203.716 109.314 205.457 108.838C205.227 109.685 204.78 110.486 204.118 111.151Z" fill="white"/>
<path d="M205.458 108.835C203.716 109.312 201.776 108.863 200.408 107.489C199.04 106.115 198.594 104.166 199.069 102.417C200.81 101.94 202.751 102.388 204.118 103.762C205.486 105.136 205.933 107.085 205.458 108.835Z" fill="#2E2A42"/>
</g>
</g>
</g>
</g>
<defs>
<clipPath id="clip0_168_77">
<rect width="390" height="184" fill="white"/>
</clipPath>
<clipPath id="clip1_168_77">
<rect width="142.19" height="164" fill="white" transform="translate(8 10)"/>
</clipPath>
<clipPath id="clip2_168_77">
<rect width="142.19" height="164" fill="white" transform="translate(8 10)"/>
</clipPath>
<clipPath id="clip3_168_77">
<rect width="142.19" height="163.986" fill="white" transform="translate(8 10.0068)"/>
</clipPath>
<clipPath id="clip4_168_77">
<rect width="208.89" height="164" fill="white" transform="translate(166.19 10)"/>
</clipPath>
<clipPath id="clip5_168_77">
<rect width="208.89" height="164" fill="white" transform="translate(166.19 10)"/>
</clipPath>
<clipPath id="clip6_168_77">
<rect width="208.89" height="163.988" fill="white" transform="translate(166.19 10.0059)"/>
</clipPath>
</defs>
</svg>
