<svg width="40" height="40" viewBox="0 0 40 40" fill="none" xmlns="http://www.w3.org/2000/svg">
<g clip-path="url(#clip0_1_825)">
<g clip-path="url(#clip1_1_825)">
<path d="M10.4328 7.60313C9.70517 7.58465 9.24677 6.63598 9.90197 6.31871C13.6718 4.4929 16.1309 6.81543 18.9953 6.14412C19.4754 6.03161 19.9995 6.35862 19.9995 6.8518V9.98171C19.9995 10.3404 19.714 10.6375 19.3553 10.6313C14.7849 10.5533 13.7973 7.68882 10.4328 7.60313Z" fill="url(#paint0_linear_1_825)"/>
<path d="M35.8777 25.0587L23.8594 26.6859C23.8594 18.6262 23.8594 12.9347 19.8411 6.69472C19.5405 6.14254 20.5497 6.37051 20.2239 5.78442C30.6762 10.64 34.9556 16.4924 35.8777 25.0587Z" fill="url(#paint1_linear_1_825)"/>
<path d="M19.7825 26.8974V13.3606C15.9854 16.7842 11.314 23.5317 9.66161 27.9727L19.7825 26.8974Z" fill="url(#paint2_linear_1_825)"/>
<path fill-rule="evenodd" clip-rule="evenodd" d="M19.9994 5.48169C20.368 5.48169 20.6668 5.78047 20.6668 6.14906V26.4489C20.6668 26.8175 20.368 27.1162 19.9994 27.1162C19.6308 27.1162 19.332 26.8175 19.332 26.4489V6.14906C19.332 5.78047 19.6308 5.48169 19.9994 5.48169Z" fill="#2E2A42"/>
<path fill-rule="evenodd" clip-rule="evenodd" d="M5.18286 27.8491C4.51091 27.9284 4.00462 28.498 4.00462 29.1746V29.9552C4.00462 32.1667 5.79739 33.9594 8.00888 33.9594H9.98328L12.1106 32.0582L14.5572 33.9594H17.8971L20.0884 31.9519L22.5135 33.9594H25.4117C25.5802 33.9594 25.7488 33.9574 25.9174 33.953L27.7895 31.9519L29.6509 33.1776C33.3277 31.5483 36.0334 28.434 37.0459 24.9563C37.1729 24.5197 36.8023 24.1157 36.3509 24.1691L5.18286 27.8491Z" fill="url(#paint3_linear_1_825)"/>
<path fill-rule="evenodd" clip-rule="evenodd" d="M27.733 30.7979C27.9951 30.7979 28.2329 30.9512 28.341 31.19C28.9028 32.4311 30.1513 33.2924 31.5995 33.2924C33.0478 33.2924 34.2963 32.4311 34.8581 31.19C34.9661 30.9512 35.204 30.7979 35.466 30.7979C35.7281 30.7979 35.966 30.9512 36.074 31.19C36.6359 32.4311 37.8844 33.2924 39.3327 33.2924C39.7012 33.2924 40 33.5912 40 33.9597C40 34.3284 39.7012 34.6272 39.3327 34.6272C37.7618 34.6272 36.3643 33.8895 35.466 32.7432C34.5679 33.8895 33.1703 34.6272 31.5995 34.6272C30.0288 34.6272 28.6313 33.8895 27.733 32.7432C26.8348 33.8895 25.4372 34.6272 23.8665 34.6272C22.2958 34.6272 20.8982 33.8895 20 32.7432C19.1017 33.8895 17.7041 34.6272 16.1335 34.6272C14.5627 34.6272 13.1652 33.8895 12.267 32.7432C11.3687 33.8895 9.97113 34.6272 8.40036 34.6272C6.82967 34.6272 5.43212 33.8895 4.53389 32.7432C3.63567 33.8895 2.23811 34.6272 0.667372 34.6272C0.298789 34.6272 0 34.3284 0 33.9597C0 33.5912 0.298789 33.2924 0.667372 33.2924C2.1156 33.2924 3.36409 32.4311 3.92591 31.19C4.03399 30.9512 4.27181 30.7979 4.53389 30.7979C4.79598 30.7979 5.0338 30.9512 5.14188 31.19C5.70367 32.4311 6.9522 33.2924 8.40036 33.2924C9.84865 33.2924 11.0971 32.4311 11.659 31.19C11.7671 30.9512 12.0049 30.7979 12.267 30.7979C12.529 30.7979 12.7668 30.9512 12.8749 31.19C13.4367 32.4311 14.6852 33.2924 16.1335 33.2924C17.5817 33.2924 18.8302 32.4311 19.392 31.19C19.5001 30.9512 19.7379 30.7979 20 30.7979C20.262 30.7979 20.4999 30.9512 20.608 31.19C21.1697 32.4311 22.4183 33.2924 23.8665 33.2924C25.3148 33.2924 26.5633 32.4311 27.1251 31.19C27.2331 30.9512 27.471 30.7979 27.733 30.7979Z" fill="#2E2A42"/>
</g>
</g>
<defs>
<linearGradient id="paint0_linear_1_825" x1="14.793" y1="5.60255" x2="13.5371" y2="12.336" gradientUnits="userSpaceOnUse">
<stop offset="0.400572" stop-color="#FF93AB"/>
<stop offset="1" stop-color="#FDB154"/>
</linearGradient>
<linearGradient id="paint1_linear_1_825" x1="21.7936" y1="13.1714" x2="19.4287" y2="30.6248" gradientUnits="userSpaceOnUse">
<stop stop-color="#AFDDFF"/>
<stop offset="1" stop-color="#917BFF"/>
</linearGradient>
<linearGradient id="paint2_linear_1_825" x1="21.7932" y1="13.1711" x2="19.4282" y2="30.6245" gradientUnits="userSpaceOnUse">
<stop stop-color="#AFDDFF"/>
<stop offset="1" stop-color="#917BFF"/>
</linearGradient>
<linearGradient id="paint3_linear_1_825" x1="35.091" y1="30.0028" x2="11.7672" y2="41.9722" gradientUnits="userSpaceOnUse">
<stop stop-color="#FFE079"/>
<stop offset="0.863066" stop-color="#FEB85A"/>
</linearGradient>
<clipPath id="clip0_1_825">
<rect width="40" height="40" fill="white"/>
</clipPath>
<clipPath id="clip1_1_825">
<rect width="40" height="29.8182" fill="white" transform="translate(0 5.09082)"/>
</clipPath>
</defs>
</svg>
