<svg width="13" height="11" viewBox="0 0 13 11" fill="none" xmlns="http://www.w3.org/2000/svg">
<path d="M7.25098 0.0625C7.38797 0.062569 7.52052 0.103762 7.63282 0.178711L7.73731 0.264648L12.2373 4.76465C12.3014 4.82861 12.353 4.90462 12.3877 4.98828C12.4222 5.07181 12.4396 5.16156 12.4395 5.25195C12.4393 5.34246 12.4216 5.4321 12.3867 5.51563C12.3693 5.55751 12.3475 5.5973 12.3223 5.63477L12.2363 5.73926L7.73633 10.2393C7.60717 10.3684 7.43162 10.4405 7.24903 10.4405C7.06663 10.4404 6.89176 10.3682 6.7627 10.2393C6.63353 10.1101 6.56056 9.93466 6.56055 9.75196C6.56055 9.61496 6.60186 9.48246 6.67676 9.37016L6.7627 9.26465L9.9814 6.04688L10.0889 5.94043H0.749997C0.613067 5.94043 0.480377 5.89917 0.368164 5.82422L0.263672 5.73828C0.135016 5.60947 0.0626 5.43499 0.0625 5.25293C0.0625 5.11622 0.103014 4.98319 0.177734 4.8711L0.263672 4.7666C0.392603 4.63767 0.567667 4.56543 0.749997 4.56543H10.0879L9.9814 4.45801L6.76367 1.23828C6.6345 1.10911 6.56153 0.933658 6.56153 0.750978C6.56161 0.568478 6.63467 0.393728 6.76367 0.264648C6.89285 0.135473 7.0683 0.0625 7.25098 0.0625Z" fill="#5934C5" stroke="#7A55FD" stroke-width="0.125"/>
</svg>
