<svg width="82" height="13" viewBox="0 0 82 13" fill="none" xmlns="http://www.w3.org/2000/svg">
<path d="M2.26758 5.21591C2.26758 4.69176 2.39542 4.21396 2.6511 3.78249C2.90678 3.35103 3.25036 3.00746 3.68182 2.75178C4.11328 2.49609 4.59109 2.36825 5.11523 2.36825C5.56907 2.36825 5.98775 2.46573 6.37127 2.66069C6.75799 2.85565 7.07759 3.12251 7.33008 3.46129C7.58256 3.79687 7.73917 4.1772 7.79989 4.60227H6.63974C6.57582 4.27308 6.39844 4.00462 6.1076 3.79688C5.81676 3.58594 5.48597 3.48047 5.11523 3.48047C4.79563 3.48047 4.50479 3.55877 4.24272 3.71538C3.98065 3.87198 3.77131 4.08132 3.6147 4.34339C3.4581 4.60547 3.37979 4.89631 3.37979 5.21591C3.37979 5.53551 3.4581 5.82635 3.6147 6.08842C3.77131 6.3505 3.98065 6.55984 4.24272 6.71644C4.50479 6.87305 4.79563 6.95135 5.11523 6.95135C5.48597 6.95135 5.79918 6.84748 6.05487 6.63974C6.31374 6.4288 6.47674 6.15874 6.54386 5.82955H7.70401C7.64329 6.25462 7.49467 6.63654 7.25817 6.97532C7.02166 7.3109 6.71804 7.57617 6.3473 7.77113C5.97976 7.96609 5.56907 8.06357 5.11523 8.06357C4.59109 8.06357 4.11328 7.93572 3.68182 7.68004C3.25036 7.42436 2.90678 7.08079 2.6511 6.64933C2.39542 6.21786 2.26758 5.74006 2.26758 5.21591ZM5.06729 10.2784C4.37056 10.2784 3.71538 10.1474 3.10174 9.8853C2.4913 9.62322 1.95277 9.26048 1.48615 8.79705C1.02273 8.33043 0.658381 7.7919 0.393111 7.18146C0.131037 6.57102 0.00159803 5.91584 0.00479408 5.21591C0.00799007 4.51598 0.140625 3.8608 0.402699 3.25035C0.667969 2.63991 1.03232 2.10298 1.49574 1.63956C1.95916 1.17294 2.49609 0.808593 3.10653 0.54652C3.71697 0.284446 4.37056 0.153409 5.06729 0.153409C5.76722 0.153409 6.42241 0.284446 7.03285 0.54652C7.64648 0.808593 8.18342 1.17294 8.64364 1.63956C9.10707 2.10298 9.46982 2.63991 9.73189 3.25035C9.99396 3.8608 10.1266 4.51598 10.1298 5.21591C10.133 5.91584 10.0036 6.57102 9.74148 7.18146C9.4794 7.7919 9.11666 8.33043 8.65323 8.79705C8.18981 9.26048 7.65128 9.62322 7.03764 9.8853C6.42401 10.1474 5.76722 10.2784 5.06729 10.2784ZM5.06729 9.16619C5.61381 9.16619 6.12678 9.06392 6.60618 8.85938C7.08558 8.65483 7.50586 8.37198 7.86701 8.01083C8.22816 7.64968 8.51101 7.231 8.71555 6.75479C8.9201 6.27539 9.02077 5.76403 9.01758 5.2207C9.01438 4.67418 8.91051 4.16122 8.70597 3.68182C8.50142 3.20241 8.21857 2.78214 7.85742 2.42099C7.49627 2.05984 7.07759 1.77699 6.60139 1.57244C6.12518 1.3679 5.61381 1.26562 5.06729 1.26562C4.52397 1.26562 4.0142 1.3679 3.538 1.57244C3.06179 1.77699 2.64311 2.06143 2.28196 2.42578C1.92081 2.78693 1.63636 3.20721 1.42862 3.68661C1.22408 4.16282 1.12021 4.67418 1.11701 5.2207C1.11381 5.76083 1.21449 6.2706 1.41903 6.75C1.62358 7.22621 1.90643 7.64489 2.26758 8.00604C2.63192 8.36719 3.0522 8.65163 3.52841 8.85938C4.00781 9.06392 4.52077 9.16619 5.06729 9.16619ZM16.0588 10.125V9.26207L19.2996 5.71449C19.6799 5.29901 19.9931 4.93785 20.2392 4.63104C20.4853 4.32102 20.6675 4.03018 20.7857 3.75852C20.9072 3.48366 20.9679 3.19602 20.9679 2.8956C20.9679 2.55043 20.8848 2.2516 20.7186 1.99911C20.5556 1.74663 20.3319 1.55167 20.0475 1.41424C19.763 1.27681 19.4434 1.2081 19.0886 1.2081C18.7115 1.2081 18.3823 1.2864 18.1011 1.443C17.823 1.59641 17.6073 1.81214 17.4539 2.0902C17.3037 2.36825 17.2286 2.69425 17.2286 3.06818H16.0972C16.0972 2.4929 16.2298 1.98793 16.4951 1.55327C16.7603 1.11861 17.1215 0.779829 17.5785 0.536931C18.0388 0.294034 18.5549 0.172585 19.127 0.172585C19.7023 0.172585 20.212 0.294034 20.6563 0.536931C21.1005 0.779829 21.4489 1.10742 21.7014 1.51971C21.9539 1.932 22.0801 2.39062 22.0801 2.8956C22.0801 3.25675 22.0146 3.60991 21.8836 3.95508C21.7557 4.29705 21.532 4.67898 21.2124 5.10085C20.896 5.51953 20.4565 6.03089 19.894 6.63494L17.6888 8.99361V9.07031H22.2527V10.125H16.0588ZM27.4351 10.2592C26.7128 10.2592 26.0975 10.0627 25.5894 9.66957C25.0812 9.27326 24.6929 8.69957 24.4244 7.94851C24.1559 7.19425 24.0217 6.28338 24.0217 5.21591C24.0217 4.15483 24.1559 3.24876 24.4244 2.49769C24.6961 1.74343 25.086 1.16815 25.5941 0.771839C26.1055 0.372336 26.7191 0.172585 27.4351 0.172585C28.151 0.172585 28.763 0.372336 29.2712 0.771839C29.7825 1.16815 30.1725 1.74343 30.4409 2.49769C30.7126 3.24876 30.8484 4.15483 30.8484 5.21591C30.8484 6.28338 30.7142 7.19425 30.4457 7.94851C30.1772 8.69957 29.7889 9.27326 29.2808 9.66957C28.7726 10.0627 28.1574 10.2592 27.4351 10.2592ZM27.4351 9.20455C28.151 9.20455 28.7071 8.85937 29.1034 8.16903C29.4997 7.47869 29.6978 6.49432 29.6978 5.21591C29.6978 4.36577 29.6068 3.64187 29.4246 3.04421C29.2456 2.44655 28.9867 1.99112 28.6479 1.67791C28.3124 1.3647 27.9081 1.2081 27.4351 1.2081C26.7255 1.2081 26.171 1.55806 25.7715 2.25799C25.372 2.95472 25.1723 3.9407 25.1723 5.21591C25.1723 6.06605 25.2618 6.78835 25.4407 7.38281C25.6197 7.97727 25.877 8.42951 26.2126 8.73952C26.5514 9.04954 26.9589 9.20455 27.4351 9.20455ZM32.6701 10.125V9.26207L35.9109 5.71449C36.2912 5.29901 36.6044 4.93785 36.8505 4.63104C37.0966 4.32102 37.2788 4.03018 37.3971 3.75852C37.5185 3.48366 37.5792 3.19602 37.5792 2.8956C37.5792 2.55043 37.4961 2.2516 37.3299 1.99911C37.1669 1.74663 36.9432 1.55167 36.6588 1.41424C36.3743 1.27681 36.0547 1.2081 35.7 1.2081C35.3228 1.2081 34.9937 1.2864 34.7124 1.443C34.4343 1.59641 34.2186 1.81214 34.0652 2.0902C33.915 2.36825 33.8399 2.69425 33.8399 3.06818H32.7085C32.7085 2.4929 32.8411 1.98793 33.1064 1.55327C33.3717 1.11861 33.7328 0.779829 34.1899 0.536931C34.6501 0.294034 35.1662 0.172585 35.7383 0.172585C36.3136 0.172585 36.8234 0.294034 37.2676 0.536931C37.7119 0.779829 38.0602 1.10742 38.3127 1.51971C38.5652 1.932 38.6915 2.39062 38.6915 2.8956C38.6915 3.25675 38.6259 3.60991 38.4949 3.95508C38.3671 4.29705 38.1433 4.67898 37.8237 5.10085C37.5073 5.51953 37.0679 6.03089 36.5054 6.63494L34.3001 8.99361V9.07031H38.864V10.125H32.6701ZM43.9122 10.2592C43.3497 10.2592 42.8431 10.1474 42.3924 9.92365C41.9418 9.69993 41.5807 9.39311 41.309 9.0032C41.0373 8.61328 40.8887 8.16903 40.8631 7.67045H42.0137C42.0585 8.1147 42.2598 8.48224 42.6178 8.77308C42.9789 9.06072 43.4104 9.20455 43.9122 9.20455C44.3149 9.20455 44.6728 9.11026 44.986 8.9217C45.3024 8.73313 45.5501 8.47425 45.7291 8.14506C45.9113 7.81268 46.0024 7.43714 46.0024 7.01847C46.0024 6.5902 45.9081 6.20827 45.7195 5.87269C45.5341 5.53391 45.2785 5.26705 44.9525 5.07209C44.6265 4.87713 44.2541 4.77805 43.8354 4.77486C43.535 4.77166 43.2266 4.818 42.9102 4.91388C42.5938 5.00657 42.3333 5.12642 42.1288 5.27344L41.0166 5.1392L41.611 0.306818H46.7119V1.36151H42.6082L42.263 4.2571H42.3205C42.5219 4.0973 42.7744 3.96467 43.078 3.8592C43.3816 3.75373 43.698 3.70099 44.0272 3.70099C44.6281 3.70099 45.1634 3.84482 45.6332 4.13246C46.1062 4.4169 46.477 4.80682 46.7454 5.3022C47.0171 5.79758 47.1529 6.36328 47.1529 6.99929C47.1529 7.62571 47.0123 8.18501 46.731 8.6772C46.453 9.16619 46.0695 9.55291 45.5805 9.83736C45.0915 10.1186 44.5354 10.2592 43.9122 10.2592ZM53.0268 10.125V0.306818H56.3443C57.1113 0.306818 57.7409 0.437855 58.2331 0.699929C58.7253 0.958806 59.0897 1.31516 59.3262 1.769C59.5627 2.22283 59.6809 2.73899 59.6809 3.31747C59.6809 3.89595 59.5627 4.40891 59.3262 4.85636C59.0897 5.3038 58.7269 5.65536 58.2379 5.91104C57.7489 6.16353 57.1241 6.28977 56.3635 6.28977H53.6788V5.21591H56.3251C56.8493 5.21591 57.2711 5.1392 57.5907 4.9858C57.9135 4.83239 58.1468 4.61506 58.2907 4.33381C58.4377 4.04936 58.5112 3.71058 58.5112 3.31747C58.5112 2.92436 58.4377 2.58079 58.2907 2.28675C58.1436 1.99272 57.9087 1.7658 57.5859 1.606C57.2631 1.443 56.8365 1.36151 56.3059 1.36151H54.2157V10.125H53.0268ZM57.6483 5.71449L60.0645 10.125H58.6838L56.3059 5.71449H57.6483ZM61.5087 10.125V2.76136H62.64V10.125H61.5087ZM62.0839 1.53409C61.8634 1.53409 61.6733 1.45898 61.5134 1.30877C61.3568 1.15856 61.2785 0.977983 61.2785 0.767046C61.2785 0.556108 61.3568 0.375533 61.5134 0.225319C61.6733 0.0751064 61.8634 0 62.0839 0C62.3045 0 62.493 0.0751064 62.6496 0.225319C62.8094 0.375533 62.8893 0.556108 62.8893 0.767046C62.8893 0.977983 62.8094 1.15856 62.6496 1.30877C62.493 1.45898 62.3045 1.53409 62.0839 1.53409ZM65.8437 0.306818V10.125H64.7123V0.306818H65.8437ZM71.0032 10.2784C70.2937 10.2784 69.6817 10.1218 69.1671 9.80859C68.6558 9.49219 68.2611 9.05114 67.983 8.48544C67.7081 7.91655 67.5707 7.25497 67.5707 6.50071C67.5707 5.74645 67.7081 5.08168 67.983 4.50639C68.2611 3.92791 68.6478 3.47727 69.1432 3.15447C69.6417 2.82848 70.2234 2.66548 70.8882 2.66548C71.2717 2.66548 71.6504 2.7294 72.0244 2.85724C72.3983 2.98508 72.7387 3.19283 73.0455 3.48047C73.3523 3.76491 73.5968 4.14205 73.779 4.61186C73.9612 5.08168 74.0522 5.66016 74.0522 6.3473V6.8267H68.3761V5.84872H72.9017C72.9017 5.43324 72.8186 5.0625 72.6524 4.73651C72.4894 4.41051 72.2561 4.15323 71.9525 3.96467C71.652 3.7761 71.2973 3.68182 70.8882 3.68182C70.4375 3.68182 70.0476 3.79368 69.7184 4.0174C69.3924 4.23793 69.1416 4.52557 68.9658 4.88033C68.79 5.23508 68.7021 5.61541 68.7021 6.02131V6.6733C68.7021 7.2294 68.798 7.70082 68.9897 8.08754C69.1847 8.47106 69.4548 8.76349 69.7999 8.96484C70.1451 9.163 70.5462 9.26207 71.0032 9.26207C71.3005 9.26207 71.5689 9.22053 71.8086 9.13743C72.0515 9.05114 72.2609 8.9233 72.4367 8.75391C72.6124 8.58132 72.7483 8.36719 72.8441 8.11151L73.9372 8.41832C73.8221 8.78906 73.6288 9.11506 73.3571 9.39631C73.0854 9.67436 72.7499 9.89169 72.3504 10.0483C71.9509 10.2017 71.5018 10.2784 71.0032 10.2784ZM76.2779 12.8864C76.0861 12.8864 75.9151 12.8704 75.7649 12.8384C75.6147 12.8097 75.5108 12.7809 75.4533 12.7521L75.7409 11.755C76.0158 11.8253 76.2587 11.8509 76.4696 11.8317C76.6806 11.8125 76.8675 11.7182 77.0305 11.5488C77.1967 11.3826 77.3485 11.1126 77.486 10.7386L77.6969 10.1634L74.9739 2.76136H76.2012L78.2338 8.62926H78.3105L80.3432 2.76136H81.5705L78.4448 11.1989C78.3042 11.5792 78.13 11.894 77.9222 12.1433C77.7145 12.3958 77.4732 12.5827 77.1983 12.7042C76.9267 12.8256 76.6199 12.8864 76.2779 12.8864Z" fill="#2E2A42"/>
</svg>
